<mxfile host="Electron" agent="Mozilla/5.0 (Windows NT 10.0; Win64; x64) AppleWebKit/537.36 (KHTML, like Gecko) draw.io/26.0.7 Chrome/128.0.6613.186 Electron/32.2.5 Safari/537.36" version="26.0.7">
  <diagram name="Page-1" id="Lr_fz0TNCrjgswYPvSXg">
    <mxGraphModel dx="1102" dy="990" grid="1" gridSize="10" guides="1" tooltips="1" connect="1" arrows="1" fold="1" page="1" pageScale="1" pageWidth="850" pageHeight="1100" math="0" shadow="0">
      <root>
        <mxCell id="0" />
        <mxCell id="1" parent="0" />
        <mxCell id="3lgC1PejZkCKmDUazsy2-1" value="What&#39;s on your mind?" style="rounded=0;whiteSpace=wrap;html=1;" vertex="1" parent="1">
          <mxGeometry x="40" y="20" width="760" height="100" as="geometry" />
        </mxCell>
        <mxCell id="3lgC1PejZkCKmDUazsy2-2" value="Create store" style="rounded=0;whiteSpace=wrap;html=1;" vertex="1" parent="1">
          <mxGeometry x="40" y="140" width="760" height="100" as="geometry" />
        </mxCell>
        <mxCell id="3lgC1PejZkCKmDUazsy2-3" value="People you may know" style="rounded=0;whiteSpace=wrap;html=1;" vertex="1" parent="1">
          <mxGeometry x="40" y="260" width="760" height="100" as="geometry" />
        </mxCell>
        <mxCell id="3lgC1PejZkCKmDUazsy2-4" value="Reels" style="rounded=0;whiteSpace=wrap;html=1;" vertex="1" parent="1">
          <mxGeometry x="40" y="380" width="760" height="80" as="geometry" />
        </mxCell>
        <mxCell id="3lgC1PejZkCKmDUazsy2-5" value="Home page feed" style="rounded=0;whiteSpace=wrap;html=1;" vertex="1" parent="1">
          <mxGeometry x="40" y="490" width="760" height="470" as="geometry" />
        </mxCell>
      </root>
    </mxGraphModel>
  </diagram>
</mxfile>
